<?xml version="1.0" encoding="UTF-8"?>
<svg id="_레이어_1" data-name="레이어 1" xmlns="http://www.w3.org/2000/svg" viewBox="0 0 356.98 51.59">
  <defs>
    <style>
      .cls-1 {
        stroke-width: 0px;
      }
    </style>
  </defs>
  <path class="cls-1" d="m338.46,31.66l2.65.04c4.36,0,8.09-1.55,11.18-4.64,3.09-3.1,4.63-6.83,4.63-11.2s-1.55-8.11-4.64-11.2c-3.1-3.09-6.83-4.64-11.2-4.64h-87.33l-19.9,20.34V0h-11.79v7.17c-.59-.89-1.29-1.73-2.09-2.53-3.1-3.09-6.83-4.64-11.2-4.64h-32.06v14.42c-1.23-2.47-2.88-4.76-4.99-6.87-5.04-5.04-11.12-7.56-18.24-7.56-6.52,0-12.16,2.12-16.93,6.33l2.81-6.33h-13.22l-14.39,32.5-11.08-25.02-11.08,25.01L75.18,0h-22.46v45.82L32.43,0h-9.58L0,51.59h13.22l14.42-32.56,9.2,20.77h-16.93l5.16,11.79h39.45V5.77l20.29,45.82h9.52l6.33-14.28,6.24,14.28h9.6l11.19-25.27c.12,6.9,2.63,12.81,7.54,17.72,5.04,5.04,11.12,7.56,18.24,7.56s13.21-2.52,18.24-7.56c2.11-2.1,3.76-4.39,4.99-6.86v14.42h11.79V11.79h20.27c1.13,0,2.09.39,2.88,1.18.78.79,1.18,1.75,1.18,2.88s-.39,2.09-1.18,2.87c-.79.79-1.75,1.18-2.88,1.18h-13.64l-5.16,11.79,18.28,19.9h25.6v-14.7l5.82-5.95,15.56,20.65h51.22l2.57-5.91v5.91h11.79V11.79h20.27c1.13,0,2.09.39,2.88,1.18.78.79,1.18,1.75,1.18,2.88s-.39,2.09-1.18,2.87c-.79.79-1.75,1.18-2.88,1.18h-13.64l-5.16,11.79,18.28,19.9h16.41l-18.51-19.94Zm-175.07,4.05c-2.73,2.73-6.03,4.09-9.91,4.09s-7.12-1.36-9.88-4.09c-2.75-2.73-4.13-6.03-4.13-9.91s1.38-7.19,4.13-9.91c2.75-2.73,6.04-4.09,9.88-4.09s7.19,1.36,9.91,4.09c2.73,2.73,4.09,6.03,4.09,9.91s-1.36,7.19-4.09,9.91Zm42.77-4.05l2.65.04c4.36,0,8.09-1.55,11.18-4.64.8-.8,1.48-1.64,2.08-2.52v24.25l-15.9-17.13Zm41.85-9.24l19.34-19.77v45.44l-19.34-25.67Zm31.13,17.38v-8.11h19.89l5.17-11.79h-25.06v-8.11h27.27l2.6-5.95v33.96h-29.87Z"/>
</svg>